<mxfile host="65bd71144e">
    <diagram id="wkji4qoLPhG2OQI54eEK" name="Page-1">
        <mxGraphModel dx="2065" dy="828" grid="1" gridSize="10" guides="1" tooltips="1" connect="1" arrows="1" fold="1" page="1" pageScale="1" pageWidth="827" pageHeight="1169" background="#ffffff" math="0" shadow="0">
            <root>
                <mxCell id="0"/>
                <mxCell id="1" parent="0"/>
                <mxCell id="130" value="" style="fillColor=none;verticalAlign=top;fontStyle=1;fontSize=24;strokeWidth=2;strokeColor=#333333;fontColor=#333333;" vertex="1" parent="1">
                    <mxGeometry x="-680" y="585" width="1300" height="305" as="geometry"/>
                </mxCell>
                <mxCell id="128" value="" style="verticalAlign=top;fontStyle=1;fontSize=24;strokeWidth=2;fillColor=none;strokeColor=#333333;fontColor=#333333;" vertex="1" parent="1">
                    <mxGeometry x="-315" y="250" width="614" height="310" as="geometry"/>
                </mxCell>
                <mxCell id="56" style="edgeStyle=none;html=1;endArrow=classic;endFill=1;fontColor=#030303;strokeColor=#030303;" parent="1" source="3" target="16" edge="1">
                    <mxGeometry relative="1" as="geometry"/>
                </mxCell>
                <mxCell id="3" value="" style="shape=mxgraph.cisco.routers.router;sketch=0;html=1;pointerEvents=1;dashed=0;fillColor=#036897;strokeColor=#ffffff;strokeWidth=2;verticalLabelPosition=bottom;verticalAlign=top;align=center;outlineConnect=0;fontColor=#030303;" parent="1" vertex="1">
                    <mxGeometry x="-50.5" y="162" width="78" height="53" as="geometry"/>
                </mxCell>
                <mxCell id="70" style="edgeStyle=none;html=1;endArrow=classic;endFill=1;strokeColor=#030303;fontColor=#030303;" parent="1" source="4" target="7" edge="1">
                    <mxGeometry relative="1" as="geometry"/>
                </mxCell>
                <mxCell id="4" value="" style="shape=mxgraph.cisco.switches.workgroup_switch;sketch=0;html=1;pointerEvents=1;dashed=0;fillColor=#036897;strokeColor=#ffffff;strokeWidth=2;verticalLabelPosition=bottom;verticalAlign=top;align=center;outlineConnect=0;fontColor=#030303;" parent="1" vertex="1">
                    <mxGeometry x="-471.5" y="740" width="101" height="50" as="geometry"/>
                </mxCell>
                <mxCell id="66" style="edgeStyle=none;html=1;endArrow=classic;endFill=1;strokeColor=#030303;fontColor=#030303;startArrow=none;" parent="1" source="102" target="11" edge="1">
                    <mxGeometry relative="1" as="geometry"/>
                </mxCell>
                <mxCell id="67" style="edgeStyle=none;html=1;endArrow=classic;endFill=1;strokeColor=#030303;fontColor=#030303;startArrow=none;" parent="1" source="99" target="10" edge="1">
                    <mxGeometry relative="1" as="geometry"/>
                </mxCell>
                <mxCell id="68" style="edgeStyle=none;html=1;endArrow=classic;endFill=1;strokeColor=#030303;fontColor=#030303;startArrow=none;" parent="1" source="94" target="4" edge="1">
                    <mxGeometry relative="1" as="geometry"/>
                </mxCell>
                <mxCell id="5" value="" style="shape=mxgraph.cisco.switches.layer_3_switch;sketch=0;html=1;pointerEvents=1;dashed=0;fillColor=#036897;strokeColor=#ffffff;strokeWidth=2;verticalLabelPosition=bottom;verticalAlign=top;align=center;outlineConnect=0;fontColor=#030303;" parent="1" vertex="1">
                    <mxGeometry x="235" y="542" width="64" height="64" as="geometry"/>
                </mxCell>
                <mxCell id="60" style="edgeStyle=none;html=1;endArrow=classic;endFill=1;strokeColor=#030303;dashed=1;fontColor=#030303;" parent="1" source="6" target="8" edge="1">
                    <mxGeometry relative="1" as="geometry"/>
                </mxCell>
                <mxCell id="61" style="edgeStyle=none;html=1;endArrow=classic;endFill=1;strokeColor=#030303;fontColor=#030303;" parent="1" source="6" target="9" edge="1">
                    <mxGeometry relative="1" as="geometry"/>
                </mxCell>
                <mxCell id="6" value="" style="fontColor=#030303;verticalAlign=top;verticalLabelPosition=bottom;labelPosition=center;align=center;html=1;outlineConnect=0;fillColor=#CCCCCC;strokeColor=#6881B3;gradientColor=none;gradientDirection=north;strokeWidth=2;shape=mxgraph.networks.load_balancer;" parent="1" vertex="1">
                    <mxGeometry x="-571.5" y="412" width="100" height="30" as="geometry"/>
                </mxCell>
                <mxCell id="7" value="" style="shape=mxgraph.cisco.directors.content_engine_(cache_director);sketch=0;html=1;pointerEvents=1;dashed=0;fillColor=#036897;strokeColor=#ffffff;strokeWidth=2;verticalLabelPosition=bottom;verticalAlign=top;align=center;outlineConnect=0;fontColor=#030303;" parent="1" vertex="1">
                    <mxGeometry x="-545" y="860" width="90" height="64" as="geometry"/>
                </mxCell>
                <mxCell id="62" style="edgeStyle=none;html=1;endArrow=classic;endFill=1;strokeColor=#030303;fontColor=#030303;" parent="1" source="8" target="5" edge="1">
                    <mxGeometry relative="1" as="geometry"/>
                </mxCell>
                <mxCell id="8" value="" style="fontColor=#030303;verticalAlign=top;verticalLabelPosition=bottom;labelPosition=center;align=center;html=1;outlineConnect=0;fillColor=#CCCCCC;strokeColor=#6881B3;gradientColor=none;gradientDirection=north;strokeWidth=2;shape=mxgraph.networks.load_balancer;" parent="1" vertex="1">
                    <mxGeometry x="439.5" y="412" width="100" height="30" as="geometry"/>
                </mxCell>
                <mxCell id="32" style="edgeStyle=none;html=1;entryX=0;entryY=0.5;entryDx=0;entryDy=0;entryPerimeter=0;strokeColor=#030303;endArrow=none;endFill=0;dashed=1;fontColor=#030303;" parent="1" source="9" target="5" edge="1">
                    <mxGeometry relative="1" as="geometry"/>
                </mxCell>
                <mxCell id="64" style="edgeStyle=none;html=1;endArrow=classic;endFill=1;strokeColor=#030303;fontColor=#030303;startArrow=none;" parent="1" source="101" target="11" edge="1">
                    <mxGeometry relative="1" as="geometry"/>
                </mxCell>
                <mxCell id="65" style="edgeStyle=none;html=1;endArrow=classic;endFill=1;strokeColor=#030303;fontColor=#030303;startArrow=none;" parent="1" source="95" target="4" edge="1">
                    <mxGeometry relative="1" as="geometry"/>
                </mxCell>
                <mxCell id="69" style="edgeStyle=none;html=1;endArrow=classic;endFill=1;strokeColor=#030303;fontColor=#030303;startArrow=none;" parent="1" source="98" target="10" edge="1">
                    <mxGeometry relative="1" as="geometry"/>
                </mxCell>
                <mxCell id="9" value="" style="shape=mxgraph.cisco.switches.layer_3_switch;sketch=0;html=1;pointerEvents=1;dashed=0;fillColor=#036897;strokeColor=#ffffff;strokeWidth=2;verticalLabelPosition=bottom;verticalAlign=top;align=center;outlineConnect=0;fontColor=#030303;" parent="1" vertex="1">
                    <mxGeometry x="-335" y="542" width="64" height="64" as="geometry"/>
                </mxCell>
                <mxCell id="72" style="edgeStyle=none;html=1;endArrow=classic;endFill=1;strokeColor=#030303;fontColor=#030303;" parent="1" source="10" target="25" edge="1">
                    <mxGeometry relative="1" as="geometry"/>
                </mxCell>
                <mxCell id="73" style="edgeStyle=none;html=1;endArrow=classic;endFill=1;strokeColor=#030303;fontColor=#030303;" parent="1" source="10" target="24" edge="1">
                    <mxGeometry relative="1" as="geometry"/>
                </mxCell>
                <mxCell id="10" value="" style="shape=mxgraph.cisco.switches.workgroup_switch;sketch=0;html=1;pointerEvents=1;dashed=0;fillColor=#036897;strokeColor=#ffffff;strokeWidth=2;verticalLabelPosition=bottom;verticalAlign=top;align=center;outlineConnect=0;fontColor=#030303;" parent="1" vertex="1">
                    <mxGeometry x="-62" y="740" width="101" height="50" as="geometry"/>
                </mxCell>
                <mxCell id="74" style="edgeStyle=none;html=1;endArrow=classic;endFill=1;strokeColor=#030303;fontColor=#030303;" parent="1" source="11" target="23" edge="1">
                    <mxGeometry relative="1" as="geometry"/>
                </mxCell>
                <mxCell id="75" style="edgeStyle=none;html=1;endArrow=classic;endFill=1;strokeColor=#030303;fontColor=#030303;" parent="1" source="11" target="22" edge="1">
                    <mxGeometry relative="1" as="geometry"/>
                </mxCell>
                <mxCell id="11" value="" style="shape=mxgraph.cisco.switches.workgroup_switch;sketch=0;html=1;pointerEvents=1;dashed=0;fillColor=#036897;strokeColor=#ffffff;strokeWidth=2;verticalLabelPosition=bottom;verticalAlign=top;align=center;outlineConnect=0;fontColor=#030303;" parent="1" vertex="1">
                    <mxGeometry x="338.5" y="740" width="101" height="50" as="geometry"/>
                </mxCell>
                <mxCell id="57" style="edgeStyle=none;html=1;endArrow=classic;endFill=1;strokeColor=#030303;fontColor=#030303;startArrow=none;" parent="1" source="84" target="9" edge="1">
                    <mxGeometry relative="1" as="geometry"/>
                </mxCell>
                <mxCell id="58" style="edgeStyle=none;html=1;endArrow=classic;endFill=1;strokeColor=#030303;fontColor=#030303;startArrow=none;" parent="1" source="85" target="5" edge="1">
                    <mxGeometry relative="1" as="geometry"/>
                </mxCell>
                <mxCell id="77" style="edgeStyle=none;html=1;endArrow=classic;endFill=1;strokeColor=#030303;fontColor=#030303;" parent="1" source="16" target="17" edge="1">
                    <mxGeometry relative="1" as="geometry"/>
                </mxCell>
                <mxCell id="16" value="" style="shape=mxgraph.cisco.switches.workgroup_switch;sketch=0;html=1;pointerEvents=1;dashed=0;fillColor=#036897;strokeColor=#ffffff;strokeWidth=2;verticalLabelPosition=bottom;verticalAlign=top;align=center;outlineConnect=0;fontColor=#030303;" parent="1" vertex="1">
                    <mxGeometry x="-62" y="282" width="101" height="50" as="geometry"/>
                </mxCell>
                <mxCell id="17" value="" style="shape=mxgraph.cisco.computers_and_peripherals.pc;sketch=0;html=1;pointerEvents=1;dashed=0;fillColor=#036897;strokeColor=#ffffff;strokeWidth=2;verticalLabelPosition=bottom;verticalAlign=top;align=center;outlineConnect=0;fontColor=#030303;" parent="1" vertex="1">
                    <mxGeometry x="299" y="272" width="78" height="70" as="geometry"/>
                </mxCell>
                <mxCell id="22" value="" style="shape=mxgraph.cisco.computers_and_peripherals.pc;sketch=0;html=1;pointerEvents=1;dashed=0;fillColor=#036897;strokeColor=#ffffff;strokeWidth=2;verticalLabelPosition=bottom;verticalAlign=top;align=center;outlineConnect=0;fontColor=#030303;" parent="1" vertex="1">
                    <mxGeometry x="435" y="860" width="78" height="70" as="geometry"/>
                </mxCell>
                <mxCell id="23" value="" style="shape=mxgraph.cisco.directors.content_engine_(cache_director);sketch=0;html=1;pointerEvents=1;dashed=0;fillColor=#036897;strokeColor=#ffffff;strokeWidth=2;verticalLabelPosition=bottom;verticalAlign=top;align=center;outlineConnect=0;fontColor=#030303;" parent="1" vertex="1">
                    <mxGeometry x="265" y="860" width="90" height="64" as="geometry"/>
                </mxCell>
                <mxCell id="24" value="" style="shape=mxgraph.cisco.computers_and_peripherals.pc;sketch=0;html=1;pointerEvents=1;dashed=0;fillColor=#036897;strokeColor=#ffffff;strokeWidth=2;verticalLabelPosition=bottom;verticalAlign=top;align=center;outlineConnect=0;fontColor=#030303;" parent="1" vertex="1">
                    <mxGeometry x="35" y="860" width="78" height="70" as="geometry"/>
                </mxCell>
                <mxCell id="25" value="" style="shape=mxgraph.cisco.directors.content_engine_(cache_director);sketch=0;html=1;pointerEvents=1;dashed=0;fillColor=#036897;strokeColor=#ffffff;strokeWidth=2;verticalLabelPosition=bottom;verticalAlign=top;align=center;outlineConnect=0;fontColor=#030303;" parent="1" vertex="1">
                    <mxGeometry x="-135" y="860" width="90" height="64" as="geometry"/>
                </mxCell>
                <mxCell id="78" value="&lt;font style=&quot;font-size: 18px&quot;&gt;172.16.0.0/24&lt;/font&gt;" style="text;html=1;resizable=0;autosize=1;align=center;verticalAlign=middle;points=[];fillColor=none;strokeColor=none;rounded=0;fontColor=#030303;" parent="1" vertex="1">
                    <mxGeometry x="-423" y="215" width="130" height="20" as="geometry"/>
                </mxCell>
                <mxCell id="79" value="&lt;font style=&quot;font-size: 24px&quot;&gt;.1&lt;/font&gt;" style="text;html=1;resizable=0;autosize=1;align=center;verticalAlign=middle;points=[];fillColor=none;strokeColor=none;rounded=0;fontSize=24;fontColor=#030303;" parent="1" vertex="1">
                    <mxGeometry x="-90.5" y="205" width="40" height="30" as="geometry"/>
                </mxCell>
                <mxCell id="81" value="&lt;font style=&quot;font-size: 18px&quot;&gt;172.16.3.0/26&lt;/font&gt;" style="text;html=1;resizable=0;autosize=1;align=center;verticalAlign=middle;points=[];fillColor=none;strokeColor=none;rounded=0;fontColor=#030303;" vertex="1" parent="1">
                    <mxGeometry x="-645" y="670" width="130" height="20" as="geometry"/>
                </mxCell>
                <mxCell id="82" value="&lt;font style=&quot;font-size: 24px&quot;&gt;.253&lt;/font&gt;" style="text;html=1;resizable=0;autosize=1;align=center;verticalAlign=middle;points=[];fillColor=none;strokeColor=none;rounded=0;fontSize=24;fontColor=#030303;" vertex="1" parent="1">
                    <mxGeometry x="237" y="260" width="60" height="30" as="geometry"/>
                </mxCell>
                <mxCell id="83" value="&lt;font style=&quot;font-size: 18px&quot;&gt;仮想IP&lt;br&gt;172.16.0.254/24&lt;/font&gt;" style="text;html=1;resizable=0;autosize=1;align=center;verticalAlign=middle;points=[];fillColor=none;strokeColor=none;rounded=0;fontColor=#030303;fontStyle=0" vertex="1" parent="1">
                    <mxGeometry x="-105" y="470" width="150" height="40" as="geometry"/>
                </mxCell>
                <mxCell id="93" value="&lt;font style=&quot;font-size: 18px&quot;&gt;仮想IP&lt;br&gt;172.16.3.63/26&lt;/font&gt;" style="text;html=1;resizable=0;autosize=1;align=center;verticalAlign=middle;points=[];fillColor=none;strokeColor=none;rounded=0;fontColor=#030303;fontStyle=0" vertex="1" parent="1">
                    <mxGeometry x="-85.5" y="600" width="140" height="40" as="geometry"/>
                </mxCell>
                <mxCell id="94" value="&lt;font style=&quot;font-size: 24px&quot;&gt;.2&lt;/font&gt;" style="text;html=1;resizable=0;autosize=1;align=center;verticalAlign=middle;points=[];fillColor=none;strokeColor=none;rounded=0;fontSize=24;fontColor=#030303;" vertex="1" parent="1">
                    <mxGeometry x="145" y="585" width="40" height="30" as="geometry"/>
                </mxCell>
                <mxCell id="96" value="" style="edgeStyle=none;html=1;endArrow=none;endFill=1;strokeColor=#030303;fontColor=#030303;" edge="1" parent="1" source="5" target="94">
                    <mxGeometry relative="1" as="geometry">
                        <mxPoint x="235" y="582.8837209302326" as="sourcePoint"/>
                        <mxPoint x="-370.4999999999998" y="750.9803779069766" as="targetPoint"/>
                    </mxGeometry>
                </mxCell>
                <mxCell id="97" value="&lt;font style=&quot;font-size: 24px&quot;&gt;.3&lt;/font&gt;" style="text;html=1;resizable=0;autosize=1;align=center;verticalAlign=middle;points=[];fillColor=none;strokeColor=none;rounded=0;fontSize=24;fontColor=#030303;" vertex="1" parent="1">
                    <mxGeometry x="-345" y="820" width="40" height="30" as="geometry"/>
                </mxCell>
                <mxCell id="100" value="&lt;font style=&quot;font-size: 24px&quot;&gt;.13&lt;/font&gt;" style="text;html=1;resizable=0;autosize=1;align=center;verticalAlign=middle;points=[];fillColor=none;strokeColor=none;rounded=0;fontSize=24;fontColor=#030303;" vertex="1" parent="1">
                    <mxGeometry x="40" y="820" width="50" height="30" as="geometry"/>
                </mxCell>
                <mxCell id="103" value="&lt;font style=&quot;font-size: 24px&quot;&gt;.23&lt;/font&gt;" style="text;html=1;resizable=0;autosize=1;align=center;verticalAlign=middle;points=[];fillColor=none;strokeColor=none;rounded=0;fontSize=24;fontColor=#030303;" vertex="1" parent="1">
                    <mxGeometry x="460" y="820" width="50" height="30" as="geometry"/>
                </mxCell>
                <mxCell id="101" value="&lt;font style=&quot;font-size: 24px&quot;&gt;.21&lt;/font&gt;" style="text;html=1;resizable=0;autosize=1;align=center;verticalAlign=middle;points=[];fillColor=none;strokeColor=none;rounded=0;fontSize=24;fontColor=#030303;" vertex="1" parent="1">
                    <mxGeometry x="-165" y="600" width="50" height="30" as="geometry"/>
                </mxCell>
                <mxCell id="104" value="" style="edgeStyle=none;html=1;endArrow=none;endFill=1;strokeColor=#030303;fontColor=#030303;" edge="1" parent="1" source="9" target="101">
                    <mxGeometry relative="1" as="geometry">
                        <mxPoint x="-271" y="582.8323699421965" as="sourcePoint"/>
                        <mxPoint x="338.5" y="751.061416184971" as="targetPoint"/>
                    </mxGeometry>
                </mxCell>
                <mxCell id="105" value="&lt;font style=&quot;font-size: 18px&quot;&gt;172.16.1.0/26&lt;/font&gt;" style="text;html=1;resizable=0;autosize=1;align=center;verticalAlign=middle;points=[];fillColor=none;strokeColor=none;rounded=0;fontColor=#030303;" vertex="1" parent="1">
                    <mxGeometry x="-675" y="460" width="130" height="20" as="geometry"/>
                </mxCell>
                <mxCell id="84" value="&lt;font style=&quot;font-size: 24px&quot;&gt;.2&lt;/font&gt;" style="text;html=1;resizable=0;autosize=1;align=center;verticalAlign=middle;points=[];fillColor=none;strokeColor=none;rounded=0;fontSize=24;fontColor=#030303;" vertex="1" parent="1">
                    <mxGeometry x="-255" y="500" width="40" height="30" as="geometry"/>
                </mxCell>
                <mxCell id="106" value="" style="edgeStyle=none;html=1;endArrow=none;endFill=1;strokeColor=#030303;fontColor=#030303;" edge="1" parent="1" source="16" target="84">
                    <mxGeometry relative="1" as="geometry">
                        <mxPoint x="-38.79400749063666" y="332" as="sourcePoint"/>
                        <mxPoint x="-271" y="544.6895368782161" as="targetPoint"/>
                    </mxGeometry>
                </mxCell>
                <mxCell id="85" value="&lt;font style=&quot;font-size: 24px&quot;&gt;.3&lt;/font&gt;" style="text;html=1;resizable=0;autosize=1;align=center;verticalAlign=middle;points=[];fillColor=none;strokeColor=none;rounded=0;fontSize=24;fontColor=#030303;" vertex="1" parent="1">
                    <mxGeometry x="165" y="490" width="40" height="30" as="geometry"/>
                </mxCell>
                <mxCell id="107" value="" style="edgeStyle=none;html=1;endArrow=none;endFill=1;strokeColor=#030303;fontColor=#030303;" edge="1" parent="1" source="16" target="85">
                    <mxGeometry relative="1" as="geometry">
                        <mxPoint x="14.576779026217082" y="332" as="sourcePoint"/>
                        <mxPoint x="235" y="543.3213644524237" as="targetPoint"/>
                    </mxGeometry>
                </mxCell>
                <mxCell id="98" value="&lt;font style=&quot;font-size: 24px&quot;&gt;.11&lt;/font&gt;" style="text;html=1;resizable=0;autosize=1;align=center;verticalAlign=middle;points=[];fillColor=none;strokeColor=none;rounded=0;fontSize=24;fontColor=#030303;" vertex="1" parent="1">
                    <mxGeometry x="-255" y="606" width="50" height="30" as="geometry"/>
                </mxCell>
                <mxCell id="108" value="" style="edgeStyle=none;html=1;endArrow=none;endFill=1;strokeColor=#030303;fontColor=#030303;" edge="1" parent="1" source="9" target="98">
                    <mxGeometry relative="1" as="geometry">
                        <mxPoint x="-271" y="594.9674099485421" as="sourcePoint"/>
                        <mxPoint x="-49.65445026178031" y="740" as="targetPoint"/>
                    </mxGeometry>
                </mxCell>
                <mxCell id="95" value="&lt;font style=&quot;font-size: 24px&quot;&gt;.1&lt;/font&gt;" style="text;html=1;resizable=0;autosize=1;align=center;verticalAlign=middle;points=[];fillColor=none;strokeColor=none;rounded=0;fontSize=24;fontColor=#030303;" vertex="1" parent="1">
                    <mxGeometry x="-365" y="620" width="40" height="30" as="geometry"/>
                </mxCell>
                <mxCell id="109" value="" style="edgeStyle=none;html=1;endArrow=none;endFill=1;strokeColor=#030303;fontColor=#030303;" edge="1" parent="1" source="9" target="95">
                    <mxGeometry relative="1" as="geometry">
                        <mxPoint x="-322.76963350785354" y="606" as="sourcePoint"/>
                        <mxPoint x="-405.5549738219895" y="740" as="targetPoint"/>
                    </mxGeometry>
                </mxCell>
                <mxCell id="99" value="&lt;font style=&quot;font-size: 24px&quot;&gt;.12&lt;/font&gt;" style="text;html=1;resizable=0;autosize=1;align=center;verticalAlign=middle;points=[];fillColor=none;strokeColor=none;rounded=0;fontSize=24;fontColor=#030303;" vertex="1" parent="1">
                    <mxGeometry x="135" y="630" width="50" height="30" as="geometry"/>
                </mxCell>
                <mxCell id="110" value="" style="edgeStyle=none;html=1;endArrow=none;endFill=1;strokeColor=#030303;fontColor=#030303;" edge="1" parent="1" source="5" target="99">
                    <mxGeometry relative="1" as="geometry">
                        <mxPoint x="235" y="595.9461400359066" as="sourcePoint"/>
                        <mxPoint x="24.95287958115182" y="740" as="targetPoint"/>
                    </mxGeometry>
                </mxCell>
                <mxCell id="102" value="&lt;font style=&quot;font-size: 24px&quot;&gt;.22&lt;/font&gt;" style="text;html=1;resizable=0;autosize=1;align=center;verticalAlign=middle;points=[];fillColor=none;strokeColor=none;rounded=0;fontSize=24;fontColor=#030303;" vertex="1" parent="1">
                    <mxGeometry x="288.5" y="636" width="50" height="30" as="geometry"/>
                </mxCell>
                <mxCell id="111" value="" style="edgeStyle=none;html=1;endArrow=none;endFill=1;strokeColor=#030303;fontColor=#030303;" edge="1" parent="1" source="5" target="102">
                    <mxGeometry relative="1" as="geometry">
                        <mxPoint x="287.4397905759165" y="606" as="sourcePoint"/>
                        <mxPoint x="373.0314136125653" y="740" as="targetPoint"/>
                    </mxGeometry>
                </mxCell>
                <mxCell id="114" value="&lt;span style=&quot;font-size: 18px&quot;&gt;divSwitch&lt;/span&gt;" style="text;html=1;resizable=0;autosize=1;align=center;verticalAlign=middle;points=[];fillColor=none;strokeColor=none;rounded=0;fontColor=#030303;" vertex="1" parent="1">
                    <mxGeometry x="-60.5" y="342" width="90" height="20" as="geometry"/>
                </mxCell>
                <mxCell id="115" value="&lt;span style=&quot;font-size: 18px&quot;&gt;gwRouter&lt;br&gt;&lt;/span&gt;" style="text;html=1;resizable=0;autosize=1;align=center;verticalAlign=middle;points=[];fillColor=none;strokeColor=none;rounded=0;fontColor=#030303;" vertex="1" parent="1">
                    <mxGeometry x="5" y="215" width="90" height="20" as="geometry"/>
                </mxCell>
                <mxCell id="116" value="&lt;span style=&quot;font-size: 18px&quot;&gt;coreS&lt;/span&gt;&lt;span style=&quot;font-size: 18px&quot;&gt;witch&lt;/span&gt;&lt;span style=&quot;font-size: 18px&quot;&gt;1&lt;/span&gt;" style="text;html=1;resizable=0;autosize=1;align=center;verticalAlign=middle;points=[];fillColor=none;strokeColor=none;rounded=0;fontColor=#030303;" vertex="1" parent="1">
                    <mxGeometry x="-366" y="510" width="110" height="20" as="geometry"/>
                </mxCell>
                <mxCell id="117" value="&lt;span style=&quot;font-size: 18px&quot;&gt;coreS&lt;/span&gt;&lt;span style=&quot;font-size: 18px&quot;&gt;witch2&lt;/span&gt;" style="text;html=1;resizable=0;autosize=1;align=center;verticalAlign=middle;points=[];fillColor=none;strokeColor=none;rounded=0;fontColor=#030303;" vertex="1" parent="1">
                    <mxGeometry x="212" y="520" width="110" height="20" as="geometry"/>
                </mxCell>
                <mxCell id="118" value="&lt;span style=&quot;font-size: 18px&quot;&gt;LB1&lt;/span&gt;" style="text;html=1;resizable=0;autosize=1;align=center;verticalAlign=middle;points=[];fillColor=none;strokeColor=none;rounded=0;fontColor=#030303;" vertex="1" parent="1">
                    <mxGeometry x="-546.5" y="380" width="50" height="20" as="geometry"/>
                </mxCell>
                <mxCell id="119" value="&lt;span style=&quot;font-size: 18px&quot;&gt;LB2&lt;/span&gt;" style="text;html=1;resizable=0;autosize=1;align=center;verticalAlign=middle;points=[];fillColor=none;strokeColor=none;rounded=0;fontColor=#030303;" vertex="1" parent="1">
                    <mxGeometry x="460" y="380" width="50" height="20" as="geometry"/>
                </mxCell>
                <mxCell id="120" value="&lt;span style=&quot;font-size: 18px&quot;&gt;accS&lt;/span&gt;&lt;span style=&quot;font-size: 18px&quot;&gt;witch&lt;/span&gt;&lt;span style=&quot;font-size: 18px&quot;&gt;1&lt;/span&gt;" style="text;html=1;resizable=0;autosize=1;align=center;verticalAlign=middle;points=[];fillColor=none;strokeColor=none;rounded=0;fontColor=#030303;" vertex="1" parent="1">
                    <mxGeometry x="-405" y="780" width="110" height="20" as="geometry"/>
                </mxCell>
                <mxCell id="121" value="&lt;span style=&quot;font-size: 18px&quot;&gt;accS&lt;/span&gt;&lt;span style=&quot;font-size: 18px&quot;&gt;witch&lt;/span&gt;&lt;span style=&quot;font-size: 18px&quot;&gt;2&lt;/span&gt;" style="text;html=1;resizable=0;autosize=1;align=center;verticalAlign=middle;points=[];fillColor=none;strokeColor=none;rounded=0;fontColor=#030303;" vertex="1" parent="1">
                    <mxGeometry x="-155.5" y="780" width="110" height="20" as="geometry"/>
                </mxCell>
                <mxCell id="122" value="&lt;span style=&quot;font-size: 18px&quot;&gt;accS&lt;/span&gt;&lt;span style=&quot;font-size: 18px&quot;&gt;witch&lt;/span&gt;&lt;span style=&quot;font-size: 18px&quot;&gt;3&lt;/span&gt;" style="text;html=1;resizable=0;autosize=1;align=center;verticalAlign=middle;points=[];fillColor=none;strokeColor=none;rounded=0;fontColor=#030303;" vertex="1" parent="1">
                    <mxGeometry x="258.5" y="790" width="110" height="20" as="geometry"/>
                </mxCell>
                <mxCell id="132" value="&lt;font style=&quot;font-size: 18px&quot;&gt;VLAN10&lt;/font&gt;" style="text;html=1;resizable=0;autosize=1;align=center;verticalAlign=middle;points=[];fillColor=none;strokeColor=none;rounded=0;fontSize=24;fontColor=#333333;" vertex="1" parent="1">
                    <mxGeometry x="-295" y="260" width="80" height="40" as="geometry"/>
                </mxCell>
                <mxCell id="134" value="&lt;font style=&quot;font-size: 18px&quot;&gt;VLAN20&lt;/font&gt;" style="text;html=1;resizable=0;autosize=1;align=center;verticalAlign=middle;points=[];fillColor=none;strokeColor=none;rounded=0;fontSize=24;fontColor=#333333;" vertex="1" parent="1">
                    <mxGeometry x="-651.5" y="601" width="80" height="40" as="geometry"/>
                </mxCell>
            </root>
        </mxGraphModel>
    </diagram>
</mxfile>